<svg width="30" height="30" viewBox="0 0 30 30" fill="none" xmlns="http://www.w3.org/2000/svg">
<path d="M10.078 7.17407C10.8025 7.17407 11.4544 7.2368 12.0521 7.36472C12.6462 7.49141 13.153 7.7005 13.581 7.98955C14.0029 8.2786 14.3325 8.66235 14.5699 9.1445C14.7999 9.6205 14.9143 10.2158 14.9143 10.9194C14.9143 11.682 14.7421 12.3191 14.3965 12.8271C14.0484 13.3363 13.5355 13.7532 12.8516 14.0755C13.7827 14.3449 14.4727 14.8159 14.9303 15.4851C15.3903 16.1603 15.6154 16.9684 15.6154 17.9155C15.6154 18.6842 15.469 19.3447 15.175 19.8995C14.8918 20.4459 14.4808 20.916 13.977 21.2697C13.4553 21.633 12.8724 21.8996 12.2563 22.0568C11.6103 22.2264 10.9451 22.3116 10.2773 22.3102H2.94043V7.17407H10.078ZM9.64629 13.2895C10.2367 13.2895 10.7262 13.1493 11.1124 12.8652C11.4962 12.5848 11.6819 12.1223 11.6819 11.4888C11.6819 11.1371 11.6192 10.8468 11.4962 10.6192C11.3763 10.4003 11.199 10.2183 10.9833 10.0928C10.7575 9.95891 10.5083 9.86916 10.249 9.82837C9.96631 9.77565 9.6792 9.75053 9.39168 9.75334H6.27368V13.2895H9.64629V13.2895ZM9.83201 19.7334C10.1604 19.7334 10.4728 19.7051 10.7668 19.6387C11.0632 19.5747 11.3264 19.4714 11.5503 19.3177C11.7742 19.1701 11.9586 18.9696 12.0915 18.7138C12.2256 18.4604 12.2907 18.1295 12.2907 17.7322C12.2907 16.9524 12.0706 16.3977 11.6352 16.0619C11.1985 15.7298 10.6131 15.565 9.89597 15.565H6.27368V19.7346H9.83201V19.7334ZM20.3668 19.683C20.8182 20.1233 21.4689 20.3447 22.3151 20.3447C22.9215 20.3447 23.4454 20.191 23.887 19.8859C24.3224 19.5797 24.5881 19.2525 24.6902 18.9142H27.3408C26.9152 20.2328 26.2695 21.1749 25.3864 21.742C24.5143 22.3114 23.4528 22.5943 22.213 22.5943C21.3496 22.5943 20.5722 22.4554 19.876 22.1798C19.2078 21.9196 18.604 21.5176 18.1061 21.0015C17.6164 20.4734 17.2379 19.8523 16.993 19.175C16.7237 18.4261 16.5904 17.6351 16.5994 16.8393C16.5994 16.0201 16.7359 15.2538 17.004 14.5466C17.2586 13.8629 17.6494 13.2382 18.1528 12.7102C18.651 12.1936 19.2414 11.7865 19.9289 11.4876C20.6519 11.1835 21.4299 11.032 22.2142 11.0424C23.1416 11.0424 23.9522 11.2219 24.6484 11.5836C25.3235 11.9287 25.9088 12.4265 26.358 13.0374C26.8045 13.6438 27.1231 14.3387 27.3211 15.1173C27.5191 15.8946 27.588 16.7064 27.5314 17.5563H19.6214C19.6227 18.4222 19.9142 19.2426 20.3668 19.683V19.683ZM23.8255 13.9254C23.4676 13.5294 22.8624 13.3154 22.122 13.3154C21.6411 13.3154 21.2438 13.3953 20.924 13.5601C20.6316 13.7078 20.3721 13.9133 20.1614 14.1641C19.9763 14.3917 19.8391 14.6545 19.758 14.9365C19.687 15.1716 19.6412 15.4137 19.6214 15.6585H24.5192C24.4479 14.891 24.1847 14.324 23.8255 13.9254V13.9254ZM19.0064 8.19004H25.1428V9.68446H19.0064V8.19004Z" fill="#00204B"/>
</svg>
