<svg width="30" height="30" viewBox="0 0 30 30" fill="none" xmlns="http://www.w3.org/2000/svg">
<path d="M10.078 7.50342C10.8025 7.50342 11.4544 7.56615 12.0521 7.69407C12.6462 7.82075 13.153 8.02985 13.581 8.3189C14.0029 8.60794 14.3325 8.9917 14.5699 9.47385C14.7999 9.94985 14.9143 10.5452 14.9143 11.2487C14.9143 12.0113 14.7421 12.6484 14.3965 13.1564C14.0484 13.6656 13.5355 14.0826 12.8516 14.4048C13.7827 14.6742 14.4727 15.1453 14.9303 15.8144C15.3903 16.4897 15.6154 17.2978 15.6154 18.2448C15.6154 19.0136 15.469 19.6741 15.175 20.2288C14.8918 20.7753 14.4808 21.2453 13.977 21.599C13.4553 21.9624 12.8724 22.229 12.2563 22.3862C11.6103 22.5557 10.9451 22.6409 10.2773 22.6396H2.94043V7.50342H10.078ZM9.64629 13.6189C10.2367 13.6189 10.7262 13.4787 11.1124 13.1945C11.4962 12.9141 11.6819 12.4516 11.6819 11.8182C11.6819 11.4664 11.6192 11.1761 11.4962 10.9486C11.3763 10.7297 11.199 10.5477 10.9833 10.4222C10.7575 10.2883 10.5083 10.1985 10.249 10.1577C9.96631 10.105 9.6792 10.0799 9.39168 10.0827H6.27368V13.6189H9.64629ZM9.83201 20.0628C10.1604 20.0628 10.4728 20.0345 10.7668 19.968C11.0632 19.9041 11.3264 19.8008 11.5503 19.647C11.7742 19.4994 11.9586 19.2989 12.0915 19.0431C12.2256 18.7897 12.2907 18.4589 12.2907 18.0616C12.2907 17.2818 12.0706 16.727 11.6352 16.3913C11.1985 16.0592 10.6131 15.8943 9.89597 15.8943H6.27368V20.064H9.83201V20.0628ZM20.3668 20.0123C20.8182 20.4527 21.4689 20.6741 22.3151 20.6741C22.9215 20.6741 23.4454 20.5203 23.887 20.2153C24.3224 19.909 24.5881 19.5818 24.6902 19.2436H27.3408C26.9152 20.5621 26.2695 21.5043 25.3864 22.0713C24.5143 22.6408 23.4528 22.9237 22.213 22.9237C21.3496 22.9237 20.5722 22.7847 19.876 22.5092C19.2078 22.249 18.604 21.847 18.1061 21.3309C17.6164 20.8027 17.2379 20.1816 16.993 19.5043C16.7237 18.7554 16.5904 17.9644 16.5994 17.1686C16.5994 16.3494 16.7359 15.5832 17.004 14.8759C17.2586 14.1923 17.6494 13.5675 18.1528 13.0396C18.651 12.523 19.2414 12.1158 19.9289 11.817C20.6519 11.5129 21.4299 11.3613 22.2142 11.3717C23.1416 11.3717 23.9522 11.5513 24.6484 11.9129C25.3235 12.2581 25.9088 12.7559 26.358 13.3667C26.8045 13.9731 27.1231 14.6681 27.3211 15.4466C27.5191 16.224 27.588 17.0358 27.5314 17.8857H19.6214C19.6227 18.7516 19.9142 19.572 20.3668 20.0123ZM23.8255 14.2548C23.4676 13.8587 22.8624 13.6447 22.122 13.6447C21.6411 13.6447 21.2438 13.7247 20.924 13.8895C20.6316 14.0372 20.3722 14.2426 20.1614 14.4934C19.9763 14.7211 19.8391 14.9838 19.758 15.2658C19.687 15.501 19.6412 15.743 19.6214 15.9878H24.5192C24.4479 15.2203 24.1847 14.6533 23.8255 14.2548ZM19.0064 8.51938H25.1428V10.0138H19.0064V8.51938Z" fill="#00204B"/>
</svg>
