<svg width="30" height="30" viewBox="0 0 30 30" fill="none" xmlns="http://www.w3.org/2000/svg">
<path d="M10.078 7.18311C10.8025 7.18311 11.4544 7.24583 12.0521 7.37375C12.6462 7.50044 13.153 7.70954 13.581 7.99858C14.0029 8.28763 14.3325 8.67138 14.5699 9.15354C14.7999 9.62954 14.9143 10.2248 14.9143 10.9284C14.9143 11.691 14.7421 12.3281 14.3965 12.8361C14.0484 13.3453 13.5355 13.7623 12.8516 14.0845C13.7827 14.3539 14.4727 14.825 14.9303 15.4941C15.3903 16.1693 15.6154 16.9774 15.6154 17.9245C15.6154 18.6933 15.469 19.3538 15.175 19.9085C14.8918 20.455 14.4808 20.925 13.977 21.2787C13.4553 21.642 12.8724 21.9087 12.2563 22.0659C11.6103 22.2354 10.9451 22.3206 10.2773 22.3193H2.94043V7.18311H10.078ZM9.64629 13.2986C10.2367 13.2986 10.7262 13.1584 11.1124 12.8742C11.4962 12.5938 11.6819 12.1313 11.6819 11.4979C11.6819 11.1461 11.6192 10.8558 11.4962 10.6283C11.3763 10.4094 11.199 10.2273 10.9833 10.1019C10.7575 9.96794 10.5083 9.8782 10.249 9.8374C9.96631 9.78469 9.6792 9.75956 9.39168 9.76238H6.27368V13.2986H9.64629V13.2986ZM9.83201 19.7424C10.1604 19.7424 10.4728 19.7141 10.7668 19.6477C11.0632 19.5838 11.3264 19.4805 11.5503 19.3267C11.7742 19.1791 11.9586 18.9786 12.0915 18.7228C12.2256 18.4694 12.2907 18.1385 12.2907 17.7413C12.2907 16.9615 12.0706 16.4067 11.6352 16.0709C11.1985 15.7389 10.6131 15.574 9.89597 15.574H6.27368V19.7437H9.83201V19.7424ZM20.3668 19.692C20.8182 20.1323 21.4689 20.3537 22.3151 20.3537C22.9215 20.3537 23.4454 20.2 23.887 19.895C24.3224 19.5887 24.5881 19.2615 24.6902 18.9233H27.3408C26.9152 20.2418 26.2695 21.184 25.3864 21.751C24.5143 22.3205 23.4528 22.6034 22.213 22.6034C21.3496 22.6034 20.5722 22.4644 19.876 22.1889C19.2078 21.9286 18.604 21.5266 18.1061 21.0105C17.6164 20.4824 17.2379 19.8613 16.993 19.184C16.7237 18.4351 16.5904 17.6441 16.5994 16.8483C16.5994 16.0291 16.7359 15.2629 17.004 14.5556C17.2586 13.872 17.6494 13.2472 18.1528 12.7192C18.651 12.2027 19.2414 11.7955 19.9289 11.4966C20.6519 11.1926 21.4299 11.041 22.2142 11.0514C23.1416 11.0514 23.9522 11.231 24.6484 11.5926C25.3235 11.9378 25.9088 12.4356 26.358 13.0464C26.8045 13.6528 27.1231 14.3477 27.3211 15.1263C27.5191 15.9037 27.588 16.7155 27.5314 17.5654H19.6214C19.6227 18.4313 19.9142 19.2517 20.3668 19.692V19.692ZM23.8255 13.9345C23.4676 13.5384 22.8624 13.3244 22.122 13.3244C21.6411 13.3244 21.2438 13.4043 20.924 13.5692C20.6316 13.7169 20.3721 13.9223 20.1614 14.1731C19.9763 14.4008 19.8391 14.6635 19.758 14.9455C19.687 15.1807 19.6412 15.4227 19.6214 15.6675H24.5192C24.4479 14.9 24.1847 14.333 23.8255 13.9345V13.9345ZM19.0064 8.19907H25.1428V9.6935H19.0064V8.19907Z" fill="#00204B"/>
</svg>
