<svg width="30" height="30" viewBox="0 0 30 30" fill="none" xmlns="http://www.w3.org/2000/svg">
<path d="M10.078 7.31348C10.8025 7.31348 11.4544 7.37621 12.0521 7.50412C12.6462 7.63081 13.153 7.83991 13.581 8.12895C14.0029 8.418 14.3325 8.80175 14.5699 9.28391C14.7999 9.75991 14.9143 10.3552 14.9143 11.0588C14.9143 11.8214 14.7421 12.4585 14.3965 12.9665C14.0484 13.4757 13.5355 13.8926 12.8516 14.2149C13.7827 14.4843 14.4727 14.9553 14.9303 15.6245C15.3903 16.2997 15.6154 17.1078 15.6154 18.0549C15.6154 18.8236 15.469 19.4841 15.175 20.0389C14.8918 20.5853 14.4808 21.0554 13.977 21.4091C13.4553 21.7724 12.8724 22.039 12.2563 22.1962C11.6103 22.3658 10.9451 22.451 10.2773 22.4496H2.94043V7.31348H10.078ZM9.64629 13.4289C10.2367 13.4289 10.7262 13.2887 11.1124 13.0046C11.4962 12.7242 11.6819 12.2617 11.6819 11.6282C11.6819 11.2765 11.6192 10.9862 11.4962 10.7587C11.3763 10.5397 11.199 10.3577 10.9833 10.2322C10.7575 10.0983 10.5083 10.0086 10.249 9.96778C9.96631 9.91506 9.6792 9.88993 9.39168 9.89275H6.27368V13.4289H9.64629V13.4289ZM9.83201 19.8728C10.1604 19.8728 10.4728 19.8445 10.7668 19.7781C11.0632 19.7141 11.3264 19.6108 11.5503 19.4571C11.7742 19.3095 11.9586 19.109 12.0915 18.8532C12.2256 18.5998 12.2907 18.2689 12.2907 17.8716C12.2907 17.0918 12.0706 16.5371 11.6352 16.2013C11.1985 15.8692 10.6131 15.7044 9.89597 15.7044H6.27368V19.874H9.83201V19.8728ZM20.3668 19.8224C20.8182 20.2627 21.4689 20.4841 22.3151 20.4841C22.9215 20.4841 23.4454 20.3304 23.887 20.0253C24.3224 19.7191 24.5881 19.3919 24.6902 19.0536H27.3408C26.9152 20.3722 26.2695 21.3143 25.3864 21.8814C24.5143 22.4509 23.4528 22.7337 22.213 22.7337C21.3496 22.7337 20.5722 22.5948 19.876 22.3192C19.2078 22.059 18.604 21.657 18.1061 21.1409C17.6164 20.6128 17.2379 19.9917 16.993 19.3144C16.7237 18.5655 16.5904 17.7745 16.5994 16.9787C16.5994 16.1595 16.7359 15.3932 17.004 14.686C17.2586 14.0023 17.6494 13.3776 18.1528 12.8496C18.651 12.333 19.2414 11.9259 19.9289 11.627C20.6519 11.3229 21.4299 11.1714 22.2142 11.1818C23.1416 11.1818 23.9522 11.3613 24.6484 11.723C25.3235 12.0681 25.9088 12.5659 26.358 13.1768C26.8045 13.7832 27.1231 14.4781 27.3211 15.2567C27.5191 16.034 27.588 16.8458 27.5314 17.6957H19.6214C19.6227 18.5617 19.9142 19.382 20.3668 19.8224V19.8224ZM23.8255 14.0648C23.4676 13.6688 22.8624 13.4548 22.122 13.4548C21.6411 13.4548 21.2438 13.5347 20.924 13.6995C20.6316 13.8472 20.3721 14.0527 20.1614 14.3035C19.9763 14.5311 19.8391 14.7939 19.758 15.0759C19.687 15.311 19.6412 15.5531 19.6214 15.7979H24.5192C24.4479 15.0304 24.1847 14.4634 23.8255 14.0648V14.0648ZM19.0064 8.32944H25.1428V9.82387H19.0064V8.32944Z" fill="#00204B"/>
</svg>
