<svg width="31" height="30" viewBox="0 0 31 30" fill="none" xmlns="http://www.w3.org/2000/svg">
<path d="M10.3812 7.18311C11.1057 7.18311 11.7576 7.24583 12.3554 7.37375C12.9494 7.50044 13.4562 7.70954 13.8842 7.99858C14.3061 8.28763 14.6357 8.67138 14.8731 9.15354C15.1031 9.62954 15.2175 10.2248 15.2175 10.9284C15.2175 11.691 15.0453 12.3281 14.6997 12.8361C14.3516 13.3453 13.8387 13.7623 13.1548 14.0845C14.0859 14.3539 14.776 14.825 15.2335 15.4941C15.6935 16.1693 15.9186 16.9774 15.9186 17.9245C15.9186 18.6933 15.7722 19.3538 15.4783 19.9085C15.195 20.455 14.784 20.925 14.2803 21.2787C13.7585 21.642 13.1756 21.9087 12.5595 22.0659C11.9136 22.2354 11.2483 22.3206 10.5805 22.3193H3.24365V7.18311H10.3812ZM9.94951 13.2986C10.5399 13.2986 11.0294 13.1584 11.4156 12.8742C11.7994 12.5938 11.9851 12.1313 11.9851 11.4979C11.9851 11.1461 11.9224 10.8558 11.7994 10.6283C11.6796 10.4094 11.5022 10.2273 11.2865 10.1019C11.0607 9.96794 10.8115 9.8782 10.5522 9.8374C10.2695 9.78469 9.98242 9.75956 9.6949 9.76238H6.5769V13.2986H9.94951V13.2986ZM10.1352 19.7424C10.4636 19.7424 10.7761 19.7141 11.07 19.6477C11.3664 19.5838 11.6297 19.4805 11.8535 19.3267C12.0774 19.1791 12.2619 18.9786 12.3947 18.7228C12.5288 18.4694 12.594 18.1385 12.594 17.7413C12.594 16.9615 12.3738 16.4067 11.9384 16.0709C11.5017 15.7389 10.9163 15.574 10.1992 15.574H6.5769V19.7437H10.1352V19.7424ZM20.67 19.692C21.1214 20.1323 21.7721 20.3537 22.6183 20.3537C23.2247 20.3537 23.7487 20.2 24.1902 19.895C24.6256 19.5887 24.8913 19.2615 24.9934 18.9233H27.644C27.2184 20.2418 26.5727 21.184 25.6896 21.751C24.8175 22.3205 23.756 22.6034 22.5162 22.6034C21.6528 22.6034 20.8754 22.4644 20.1793 22.1889C19.511 21.9286 18.9072 21.5266 18.4093 21.0105C17.9197 20.4824 17.5411 19.8613 17.2962 19.184C17.0269 18.4351 16.8937 17.6441 16.9026 16.8483C16.9026 16.0291 17.0391 15.2629 17.3073 14.5556C17.5618 13.872 17.9526 13.2472 18.4561 12.7192C18.9542 12.2027 19.5446 11.7955 20.2321 11.4966C20.9552 11.1926 21.7332 11.041 22.5175 11.0514C23.4449 11.0514 24.2554 11.231 24.9516 11.5926C25.6267 11.9378 26.2121 12.4356 26.6613 13.0464C27.1077 13.6528 27.4263 14.3477 27.6243 15.1263C27.8224 15.9037 27.8912 16.7155 27.8347 17.5654H19.9247C19.9259 18.4313 20.2174 19.2517 20.67 19.692V19.692ZM24.1287 13.9345C23.7708 13.5384 23.1657 13.3244 22.4252 13.3244C21.9443 13.3244 21.547 13.4043 21.2272 13.5692C20.9348 13.7169 20.6754 13.9223 20.4646 14.1731C20.2795 14.4008 20.1423 14.6635 20.0612 14.9455C19.9902 15.1807 19.9445 15.4227 19.9247 15.6675H24.8224C24.7511 14.9 24.4879 14.333 24.1287 13.9345V13.9345ZM19.3097 8.19907H25.446V9.6935H19.3097V8.19907Z" fill="#00204B"/>
</svg>
