<svg width="31" height="30" viewBox="0 0 31 30" fill="none" xmlns="http://www.w3.org/2000/svg">
<path d="M12.4827 13.6279C11.8161 13.6279 11.2909 14.2121 11.2909 14.9255C11.2909 15.6365 11.8284 16.2232 12.4827 16.2232C13.1482 16.2232 13.6734 15.6365 13.6734 14.9255C13.6869 14.2109 13.1482 13.6279 12.4827 13.6279ZM16.7483 13.6279C16.0817 13.6279 15.5565 14.2121 15.5565 14.9255C15.5565 15.6365 16.094 16.2232 16.7483 16.2232C17.4137 16.2232 17.9389 15.6365 17.9389 14.9255C17.9377 14.2109 17.4137 13.6279 16.7483 13.6279Z" fill="#00204B"/>
<path d="M22.4271 3.82373H6.76825C6.45296 3.82454 6.14091 3.88744 5.84993 4.00884C5.55894 4.13024 5.29472 4.30777 5.07234 4.53129C4.84997 4.75481 4.6738 5.01994 4.55389 5.31154C4.43397 5.60314 4.37267 5.91551 4.37348 6.2308V22.0287C4.37348 23.3607 5.44849 24.4357 6.76825 24.4357H20.0188L19.3977 22.2722L20.8946 23.6633L22.3078 24.972L24.8219 27.1934V6.2308C24.8227 5.91551 24.7614 5.60314 24.6415 5.31154C24.5216 5.01994 24.3454 4.75481 24.123 4.53129C23.9007 4.30777 23.6365 4.13024 23.3455 4.00884C23.0545 3.88744 22.7424 3.82454 22.4271 3.82373ZM17.9156 19.0841C17.9156 19.0841 17.4949 18.5823 17.1456 18.1358C18.6757 17.7028 19.2599 16.7459 19.2599 16.7459C18.7802 17.0608 18.3252 17.2846 17.9156 17.4372C16.4244 18.0612 14.7824 18.2315 13.1949 17.9267C12.6083 17.8115 12.0336 17.6427 11.4779 17.4224C11.1848 17.3111 10.8999 17.1791 10.6255 17.0276C10.5898 17.0017 10.5554 16.9919 10.5209 16.9685C10.5025 16.9598 10.4862 16.9472 10.473 16.9316C10.2626 16.816 10.1458 16.7348 10.1458 16.7348C10.1458 16.7348 10.7067 17.6696 12.1912 18.1136C11.8407 18.5564 11.4077 19.0841 11.4077 19.0841C8.82601 19.0017 7.84572 17.308 7.84572 17.308C7.84572 13.5455 9.52833 10.4964 9.52833 10.4964C11.2109 9.23319 12.8111 9.26886 12.8111 9.26886L12.928 9.40907C10.8247 10.0179 9.85428 10.9404 9.85428 10.9404C9.85428 10.9404 10.1126 10.8002 10.5443 10.6022C11.794 10.0536 12.7866 9.90107 13.1961 9.8654C13.2662 9.85433 13.3253 9.84203 13.3954 9.84203C15.4214 9.56899 17.4816 9.95403 19.2722 10.9404C19.2722 10.9404 18.3485 10.0647 16.3621 9.45704L16.5257 9.27009C16.5257 9.27009 18.1271 9.23442 19.8085 10.4976C19.8085 10.4976 21.4911 13.5467 21.4911 17.3092C21.4911 17.3092 20.4985 19.0017 17.9156 19.0841Z" fill="#00204B"/>
</svg>
