<svg width="31" height="30" viewBox="0 0 31 30" fill="none" xmlns="http://www.w3.org/2000/svg">
<path d="M12.4828 13.6279C11.8162 13.6279 11.291 14.2121 11.291 14.9255C11.291 15.6365 11.8285 16.2232 12.4828 16.2232C13.1482 16.2232 13.6734 15.6365 13.6734 14.9255C13.687 14.2109 13.1482 13.6279 12.4828 13.6279ZM16.7484 13.6279C16.0817 13.6279 15.5565 14.2121 15.5565 14.9255C15.5565 15.6365 16.094 16.2232 16.7484 16.2232C17.4138 16.2232 17.939 15.6365 17.939 14.9255C17.9378 14.2109 17.4138 13.6279 16.7484 13.6279Z" fill="#00204B"/>
<path d="M22.4272 3.82373H6.76832C6.45302 3.82454 6.14097 3.88744 5.84999 4.00884C5.559 4.13024 5.29478 4.30777 5.07241 4.53129C4.85003 4.75481 4.67386 5.01994 4.55395 5.31154C4.43404 5.60314 4.37273 5.91551 4.37354 6.2308V22.0287C4.37354 23.3607 5.44855 24.4357 6.76832 24.4357H20.0189L19.3978 22.2722L20.8946 23.6633L22.3079 24.972L24.822 27.1934V6.2308C24.8228 5.91551 24.7615 5.60314 24.6416 5.31154C24.5217 5.01994 24.3455 4.75481 24.1231 4.53129C23.9007 4.30777 23.6365 4.13024 23.3455 4.00884C23.0545 3.88744 22.7425 3.82454 22.4272 3.82373ZM17.9156 19.0841C17.9156 19.0841 17.495 18.5823 17.1457 18.1358C18.6758 17.7028 19.26 16.7459 19.26 16.7459C18.7803 17.0608 18.3252 17.2846 17.9156 17.4372C16.4245 18.0612 14.7824 18.2315 13.195 17.9267C12.6084 17.8115 12.0336 17.6427 11.4779 17.4224C11.1848 17.3111 10.9 17.1791 10.6255 17.0276C10.5899 17.0017 10.5554 16.9919 10.521 16.9685C10.5026 16.9598 10.4862 16.9472 10.473 16.9316C10.2627 16.816 10.1458 16.7348 10.1458 16.7348C10.1458 16.7348 10.7067 17.6696 12.1913 18.1136C11.8408 18.5564 11.4078 19.0841 11.4078 19.0841C8.82607 19.0017 7.84578 17.308 7.84578 17.308C7.84578 13.5455 9.52839 10.4964 9.52839 10.4964C11.211 9.23319 12.8112 9.26886 12.8112 9.26886L12.9281 9.40907C10.8248 10.0179 9.85434 10.9404 9.85434 10.9404C9.85434 10.9404 10.1126 10.8002 10.5444 10.6022C11.794 10.0536 12.7866 9.90107 13.1962 9.8654C13.2663 9.85433 13.3253 9.84203 13.3955 9.84203C15.4215 9.56899 17.4816 9.95403 19.2723 10.9404C19.2723 10.9404 18.3486 10.0647 16.3622 9.45704L16.5258 9.27009C16.5258 9.27009 18.1272 9.23442 19.8086 10.4976C19.8086 10.4976 21.4912 13.5467 21.4912 17.3092C21.4912 17.3092 20.4986 19.0017 17.9156 19.0841Z" fill="#00204B"/>
</svg>
