<svg width="31" height="30" viewBox="0 0 31 30" fill="none" xmlns="http://www.w3.org/2000/svg">
<path d="M12.4828 13.9482C11.8162 13.9482 11.291 14.5325 11.291 15.2458C11.291 15.9568 11.8285 16.5435 12.4828 16.5435C13.1482 16.5435 13.6734 15.9568 13.6734 15.2458C13.687 14.5312 13.1482 13.9482 12.4828 13.9482ZM16.7484 13.9482C16.0817 13.9482 15.5565 14.5325 15.5565 15.2458C15.5565 15.9568 16.094 16.5435 16.7484 16.5435C17.4138 16.5435 17.939 15.9568 17.939 15.2458C17.9378 14.5312 17.4138 13.9482 16.7484 13.9482Z" fill="#00204B"/>
<path d="M22.4272 4.14404H6.76832C6.45302 4.14485 6.14097 4.20775 5.84999 4.32915C5.559 4.45056 5.29478 4.62809 5.07241 4.8516C4.85003 5.07512 4.67386 5.34025 4.55395 5.63185C4.43404 5.92346 4.37273 6.23582 4.37354 6.55112V22.349C4.37354 23.6811 5.44855 24.7561 6.76832 24.7561H20.0189L19.3978 22.5925L20.8946 23.9836L22.3079 25.2923L24.822 27.5137V6.55112C24.8228 6.23582 24.7615 5.92346 24.6416 5.63185C24.5217 5.34025 24.3455 5.07512 24.1231 4.8516C23.9007 4.62809 23.6365 4.45056 23.3455 4.32915C23.0545 4.20775 22.7425 4.14485 22.4272 4.14404ZM17.9156 19.4044C17.9156 19.4044 17.495 18.9026 17.1457 18.4561C18.6758 18.0231 19.26 17.0662 19.26 17.0662C18.7803 17.3811 18.3252 17.605 17.9156 17.7575C16.4245 18.3815 14.7824 18.5518 13.195 18.247C12.6084 18.1318 12.0336 17.963 11.4779 17.7427C11.1848 17.6314 10.9 17.4994 10.6255 17.3479C10.5899 17.3221 10.5554 17.3122 10.521 17.2888C10.5026 17.2801 10.4862 17.2675 10.473 17.2519C10.2627 17.1363 10.1458 17.0552 10.1458 17.0552C10.1458 17.0552 10.7067 17.9899 12.1913 18.434C11.8408 18.8768 11.4078 19.4044 11.4078 19.4044C8.82607 19.322 7.84578 17.6283 7.84578 17.6283C7.84578 13.8658 9.52839 10.8167 9.52839 10.8167C11.211 9.5535 12.8112 9.58917 12.8112 9.58917L12.9281 9.72939C10.8248 10.3382 9.85434 11.2607 9.85434 11.2607C9.85434 11.2607 10.1126 11.1205 10.5444 10.9225C11.794 10.3739 12.7866 10.2214 13.1962 10.1857C13.2663 10.1746 13.3253 10.1623 13.3955 10.1623C15.4215 9.88931 17.4816 10.2743 19.2723 11.2607C19.2723 11.2607 18.3486 10.385 16.3622 9.77735L16.5258 9.5904C16.5258 9.5904 18.1272 9.55473 19.8086 10.8179C19.8086 10.8179 21.4912 13.867 21.4912 17.6296C21.4912 17.6296 20.4986 19.322 17.9156 19.4044Z" fill="#00204B"/>
</svg>
