<svg width="31" height="30" viewBox="0 0 31 30" fill="none" xmlns="http://www.w3.org/2000/svg">
<path d="M12.4828 13.7583C11.8162 13.7583 11.291 14.3425 11.291 15.0559C11.291 15.7668 11.8285 16.3535 12.4828 16.3535C13.1482 16.3535 13.6734 15.7668 13.6734 15.0559C13.687 14.3413 13.1482 13.7583 12.4828 13.7583ZM16.7484 13.7583C16.0817 13.7583 15.5565 14.3425 15.5565 15.0559C15.5565 15.7668 16.094 16.3535 16.7484 16.3535C17.4138 16.3535 17.939 15.7668 17.939 15.0559C17.9378 14.3413 17.4138 13.7583 16.7484 13.7583Z" fill="#00204B"/>
<path d="M22.4272 3.9541H6.76832C6.45302 3.95491 6.14097 4.01781 5.84999 4.13921C5.559 4.26062 5.29478 4.43814 5.07241 4.66166C4.85003 4.88518 4.67386 5.15031 4.55395 5.44191C4.43404 5.73351 4.37273 6.04588 4.37354 6.36117V22.159C4.37354 23.4911 5.44855 24.5661 6.76832 24.5661H20.0189L19.3978 22.4026L20.8946 23.7937L22.3079 25.1024L24.822 27.3237V6.36117C24.8228 6.04588 24.7615 5.73351 24.6416 5.44191C24.5217 5.15031 24.3455 4.88518 24.1231 4.66166C23.9007 4.43814 23.6365 4.26062 23.3455 4.13921C23.0545 4.01781 22.7425 3.95491 22.4272 3.9541ZM17.9156 19.2145C17.9156 19.2145 17.495 18.7126 17.1457 18.2662C18.6758 17.8332 19.26 16.8763 19.26 16.8763C18.7803 17.1912 18.3252 17.415 17.9156 17.5675C16.4245 18.1916 14.7824 18.3619 13.195 18.0571C12.6084 17.9418 12.0336 17.773 11.4779 17.5528C11.1848 17.4414 10.9 17.3095 10.6255 17.1579C10.5899 17.1321 10.5554 17.1223 10.521 17.0989C10.5026 17.0901 10.4862 17.0776 10.473 17.062C10.2627 16.9464 10.1458 16.8652 10.1458 16.8652C10.1458 16.8652 10.7067 17.8 12.1913 18.244C11.8408 18.6868 11.4078 19.2145 11.4078 19.2145C8.82607 19.1321 7.84578 17.4384 7.84578 17.4384C7.84578 13.6759 9.52839 10.6267 9.52839 10.6267C11.211 9.36356 12.8112 9.39923 12.8112 9.39923L12.9281 9.53944C10.8248 10.1483 9.85434 11.0708 9.85434 11.0708C9.85434 11.0708 10.1126 10.9306 10.5444 10.7325C11.794 10.184 12.7866 10.0314 13.1962 9.99577C13.2663 9.9847 13.3253 9.9724 13.3955 9.9724C15.4215 9.69936 17.4816 10.0844 19.2723 11.0708C19.2723 11.0708 18.3486 10.195 16.3622 9.58741L16.5258 9.40046C16.5258 9.40046 18.1272 9.36479 19.8086 10.628C19.8086 10.628 21.4912 13.6771 21.4912 17.4396C21.4912 17.4396 20.4986 19.1321 17.9156 19.2145Z" fill="#00204B"/>
</svg>
