<svg width="31" height="30" viewBox="0 0 31 30" fill="none" xmlns="http://www.w3.org/2000/svg">
<path d="M12.4828 13.6191C11.8162 13.6191 11.291 14.2034 11.291 14.9167C11.291 15.6277 11.8285 16.2144 12.4828 16.2144C13.1482 16.2144 13.6734 15.6277 13.6734 14.9167C13.687 14.2021 13.1482 13.6191 12.4828 13.6191ZM16.7484 13.6191C16.0817 13.6191 15.5565 14.2034 15.5565 14.9167C15.5565 15.6277 16.094 16.2144 16.7484 16.2144C17.4138 16.2144 17.939 15.6277 17.939 14.9167C17.9378 14.2021 17.4138 13.6191 16.7484 13.6191Z" fill="#00204B"/>
<path d="M22.4272 3.81494H6.76832C6.45302 3.81575 6.14097 3.87865 5.84999 4.00005C5.559 4.12146 5.29478 4.29898 5.07241 4.5225C4.85003 4.74602 4.67386 5.01115 4.55395 5.30275C4.43404 5.59435 4.37273 5.90672 4.37354 6.22201V22.0199C4.37354 23.352 5.44855 24.427 6.76832 24.427H20.0189L19.3978 22.2634L20.8946 23.6545L22.3079 24.9632L24.822 27.1846V6.22201C24.8228 5.90672 24.7615 5.59435 24.6416 5.30275C24.5217 5.01115 24.3455 4.74602 24.1231 4.5225C23.9007 4.29898 23.6365 4.12146 23.3455 4.00005C23.0545 3.87865 22.7425 3.81575 22.4272 3.81494ZM17.9156 19.0753C17.9156 19.0753 17.495 18.5735 17.1457 18.127C18.6758 17.694 19.26 16.7371 19.26 16.7371C18.7803 17.052 18.3252 17.2759 17.9156 17.4284C16.4245 18.0524 14.7824 18.2227 13.195 17.9179C12.6084 17.8027 12.0336 17.6339 11.4779 17.4136C11.1848 17.3023 10.9 17.1703 10.6255 17.0188C10.5899 16.993 10.5554 16.9831 10.521 16.9597C10.5026 16.951 10.4862 16.9384 10.473 16.9228C10.2627 16.8072 10.1458 16.726 10.1458 16.726C10.1458 16.726 10.7067 17.6608 12.1913 18.1049C11.8408 18.5477 11.4078 19.0753 11.4078 19.0753C8.82607 18.9929 7.84578 17.2992 7.84578 17.2992C7.84578 13.5367 9.52839 10.4876 9.52839 10.4876C11.211 9.2244 12.8112 9.26007 12.8112 9.26007L12.9281 9.40028C10.8248 10.0091 9.85434 10.9316 9.85434 10.9316C9.85434 10.9316 10.1126 10.7914 10.5444 10.5934C11.794 10.0448 12.7866 9.89228 13.1962 9.85661C13.2663 9.84554 13.3253 9.83324 13.3955 9.83324C15.4215 9.5602 17.4816 9.94524 19.2723 10.9316C19.2723 10.9316 18.3486 10.0559 16.3622 9.44825L16.5258 9.2613C16.5258 9.2613 18.1272 9.22563 19.8086 10.4888C19.8086 10.4888 21.4912 13.5379 21.4912 17.3004C21.4912 17.3004 20.4986 18.9929 17.9156 19.0753Z" fill="#00204B"/>
</svg>
