<svg width="31" height="30" viewBox="0 0 31 30" fill="none" xmlns="http://www.w3.org/2000/svg">
<path d="M12.786 13.6279C12.1194 13.6279 11.5942 14.2121 11.5942 14.9255C11.5942 15.6365 12.1317 16.2232 12.786 16.2232C13.4514 16.2232 13.9766 15.6365 13.9766 14.9255C13.9902 14.2109 13.4514 13.6279 12.786 13.6279ZM17.0516 13.6279C16.385 13.6279 15.8598 14.2121 15.8598 14.9255C15.8598 15.6365 16.3973 16.2232 17.0516 16.2232C17.717 16.2232 18.2422 15.6365 18.2422 14.9255C18.241 14.2109 17.717 13.6279 17.0516 13.6279Z" fill="#00204B"/>
<path d="M22.7304 3.82373H7.07154C6.75624 3.82454 6.4442 3.88744 6.15321 4.00884C5.86223 4.13024 5.598 4.30777 5.37563 4.53129C5.15325 4.75481 4.97708 5.01994 4.85717 5.31154C4.73726 5.60314 4.67596 5.91551 4.67677 6.2308V22.0287C4.67677 23.3607 5.75177 24.4357 7.07154 24.4357H20.3221L19.701 22.2722L21.1979 23.6633L22.6111 24.972L25.1252 27.1934V6.2308C25.126 5.91551 25.0647 5.60314 24.9448 5.31154C24.8249 5.01994 24.6487 4.75481 24.4263 4.53129C24.204 4.30777 23.9397 4.13024 23.6487 4.00884C23.3578 3.88744 23.0457 3.82454 22.7304 3.82373ZM18.2189 19.0841C18.2189 19.0841 17.7982 18.5823 17.4489 18.1358C18.979 17.7028 19.5632 16.7459 19.5632 16.7459C19.0835 17.0608 18.6284 17.2846 18.2189 17.4372C16.7277 18.0612 15.0856 18.2315 13.4982 17.9267C12.9116 17.8115 12.3369 17.6427 11.7811 17.4224C11.488 17.3111 11.2032 17.1791 10.9288 17.0276C10.8931 17.0017 10.8586 16.9919 10.8242 16.9685C10.8058 16.9598 10.7894 16.9472 10.7762 16.9316C10.5659 16.816 10.4491 16.7348 10.4491 16.7348C10.4491 16.7348 11.0099 17.6696 12.4945 18.1136C12.144 18.5564 11.711 19.0841 11.711 19.0841C9.1293 19.0017 8.149 17.308 8.149 17.308C8.149 13.5455 9.83162 10.4964 9.83162 10.4964C11.5142 9.23319 13.1144 9.26886 13.1144 9.26886L13.2313 9.40907C11.128 10.0179 10.1576 10.9404 10.1576 10.9404C10.1576 10.9404 10.4159 10.8002 10.8476 10.6022C12.0972 10.0536 13.0898 9.90107 13.4994 9.8654C13.5695 9.85433 13.6286 9.84203 13.6987 9.84203C15.7247 9.56899 17.7849 9.95403 19.5755 10.9404C19.5755 10.9404 18.6518 10.0647 16.6654 9.45704L16.829 9.27009C16.829 9.27009 18.4304 9.23442 20.1118 10.4976C20.1118 10.4976 21.7944 13.5467 21.7944 17.3092C21.7944 17.3092 20.8018 19.0017 18.2189 19.0841Z" fill="#00204B"/>
</svg>
