<svg width="30" height="30" viewBox="0 0 30 30" fill="none" xmlns="http://www.w3.org/2000/svg">
<path d="M25.4934 8.71026C24.4201 6.8502 22.8754 5.30594 21.0151 4.23313C19.1295 3.13476 17.0718 2.58496 14.8418 2.58496C12.6118 2.58496 10.5541 3.13476 8.6673 4.23313C6.78174 5.33151 5.28854 6.8247 4.19017 8.71026C3.09179 10.5958 2.54199 12.6548 2.54199 14.8848C2.54199 17.1147 3.09056 19.1737 4.19017 21.0593C5.26311 22.9196 6.80788 24.464 8.66853 25.5364C10.5541 26.6348 12.6118 27.1846 14.8418 27.1846C17.0718 27.1846 19.1295 26.6348 21.0163 25.5364C22.8767 24.4636 24.4213 22.9193 25.4947 21.0593C26.593 19.1737 27.1416 17.1147 27.1416 14.8848C27.1416 12.6548 26.593 10.5958 25.4934 8.71026ZM14.8418 4.62673C17.3018 4.62673 19.4813 5.41392 21.3853 6.98706C20.2537 8.43106 18.5736 9.61922 16.3424 10.554C15.1099 8.32405 13.7742 6.46186 12.3314 4.96989C13.1491 4.7438 13.9934 4.62838 14.8418 4.62673V4.62673ZM6.85922 8.48887C7.75863 7.34674 8.89664 6.41484 10.1937 5.75831C11.6844 7.23552 13.0534 9.07926 14.3018 11.2932C11.8419 12.0312 9.2417 12.4002 6.50253 12.4002C5.79775 12.4002 5.26517 12.3842 4.90356 12.351C5.28051 10.9419 5.94652 9.62667 6.85922 8.48887V8.48887ZM4.58376 14.8848C4.58376 14.8183 4.58745 14.7372 4.59606 14.6388C4.60467 14.5404 4.60836 14.4592 4.60836 14.3928C4.92077 14.41 5.39678 14.4174 6.03637 14.4174C9.3155 14.4174 12.3658 13.966 15.1862 13.0644C15.4162 13.5232 15.6548 14.0398 15.8996 14.6142C14.276 14.9746 12.6106 15.8515 10.9046 17.2463C9.19865 18.6411 7.95391 20.1085 7.16672 21.6497C5.44475 19.6977 4.58376 17.4431 4.58376 14.8848V14.8848ZM14.8418 25.1428C12.5122 25.1428 10.4212 24.4208 8.56767 22.9793C9.30689 21.5193 10.4422 20.1233 11.9759 18.7961C13.5085 17.4677 15.03 16.64 16.5392 16.3115C17.4912 18.9425 18.1351 21.6748 18.4579 24.454C17.3053 24.9044 16.0793 25.1379 14.8418 25.1428V25.1428ZM23.5501 20.2721C22.745 21.5691 21.6609 22.6704 20.3767 23.4959C20.0815 20.9375 19.5157 18.4443 18.6806 16.0164C19.8269 15.9352 20.8515 15.8934 21.7555 15.8934C22.7383 15.8934 23.8293 15.9352 25.026 16.0164C24.8655 17.529 24.3606 18.9848 23.5501 20.2721ZM22.0249 14.1222C20.5981 14.1222 19.2783 14.18 18.0643 14.2944C17.8072 13.6213 17.5283 12.9568 17.228 12.3018C19.7691 11.1874 21.5723 9.83447 22.6386 8.24287C24.1146 9.98206 24.919 11.966 25.0494 14.196C24.0507 14.1468 23.0421 14.1222 22.0249 14.1222V14.1222Z" fill="#00204B"/>
</svg>
