<svg width="30" height="30" viewBox="0 0 30 30" fill="none" xmlns="http://www.w3.org/2000/svg">
<path d="M25.4934 8.84943C24.4201 6.98936 22.8754 5.4451 21.0151 4.3723C19.1295 3.27392 17.0718 2.72412 14.8418 2.72412C12.6118 2.72412 10.5541 3.27392 8.6673 4.3723C6.78174 5.47067 5.28854 6.96386 4.19017 8.84943C3.09179 10.735 2.54199 12.794 2.54199 15.0239C2.54199 17.2539 3.09056 19.3129 4.19017 21.1984C5.26311 23.0588 6.80788 24.6031 8.66853 25.6756C10.5541 26.7739 12.6118 27.3237 14.8418 27.3237C17.0718 27.3237 19.1295 26.7739 21.0163 25.6756C22.8767 24.6028 24.4213 23.0585 25.4947 21.1984C26.593 19.3129 27.1416 17.2539 27.1416 15.0239C27.1416 12.794 26.593 10.735 25.4934 8.84943ZM14.8418 4.76589C17.3018 4.76589 19.4813 5.55308 21.3853 7.12622C20.2537 8.57022 18.5736 9.75838 16.3424 10.6932C15.1099 8.46321 13.7742 6.60102 12.3314 5.10905C13.1491 4.88296 13.9934 4.76754 14.8418 4.76589V4.76589ZM6.85922 8.62803C7.75863 7.4859 8.89664 6.554 10.1937 5.89747C11.6844 7.37468 13.0534 9.21842 14.3018 11.4324C11.8419 12.1704 9.2417 12.5394 6.50253 12.5394C5.79775 12.5394 5.26517 12.5234 4.90356 12.4902C5.28051 11.0811 5.94652 9.76583 6.85922 8.62803V8.62803ZM4.58376 15.0239C4.58376 14.9575 4.58745 14.8763 4.59606 14.7779C4.60467 14.6795 4.60836 14.5984 4.60836 14.5319C4.92077 14.5492 5.39678 14.5565 6.03637 14.5565C9.3155 14.5565 12.3658 14.1051 15.1862 13.2036C15.4162 13.6623 15.6548 14.1789 15.8996 14.7533C14.276 15.1137 12.6106 15.9907 10.9046 17.3855C9.19865 18.7803 7.95391 20.2477 7.16672 21.7888C5.44475 19.8368 4.58376 17.5823 4.58376 15.0239V15.0239ZM14.8418 25.282C12.5122 25.282 10.4212 24.56 8.56767 23.1184C9.30689 21.6584 10.4422 20.2624 11.9759 18.9353C13.5085 17.6069 15.03 16.7791 16.5392 16.4507C17.4912 19.0816 18.1351 21.814 18.4579 24.5932C17.3053 25.0436 16.0793 25.2771 14.8418 25.282V25.282ZM23.5501 20.4112C22.745 21.7083 21.6609 22.8096 20.3767 23.635C20.0815 21.0767 19.5157 18.5835 18.6806 16.1555C19.8269 16.0743 20.8515 16.0325 21.7555 16.0325C22.7383 16.0325 23.8293 16.0743 25.026 16.1555C24.8655 17.6682 24.3606 19.124 23.5501 20.4112ZM22.0249 14.2613C20.5981 14.2613 19.2783 14.3191 18.0643 14.4335C17.8072 13.7605 17.5283 13.0959 17.228 12.441C19.7691 11.3266 21.5723 9.97363 22.6386 8.38203C24.1146 10.1212 24.919 12.1052 25.0494 14.3351C24.0507 14.2859 23.0421 14.2613 22.0249 14.2613V14.2613Z" fill="#00204B"/>
</svg>
