<svg width="30" height="30" viewBox="0 0 30 30" fill="none" xmlns="http://www.w3.org/2000/svg">
<path d="M25.4934 9.03937C24.4201 7.1793 22.8754 5.63504 21.0151 4.56224C19.1295 3.46386 17.0718 2.91406 14.8418 2.91406C12.6118 2.91406 10.5541 3.46386 8.6673 4.56224C6.78174 5.66061 5.28854 7.15381 4.19017 9.03937C3.09179 10.9249 2.54199 12.9839 2.54199 15.2139C2.54199 17.4438 3.09056 19.5028 4.19017 21.3884C5.26311 23.2487 6.80788 24.7931 8.66853 25.8655C10.5541 26.9639 12.6118 27.5137 14.8418 27.5137C17.0718 27.5137 19.1295 26.9639 21.0163 25.8655C22.8767 24.7927 24.4213 23.2484 25.4947 21.3884C26.593 19.5028 27.1416 17.4438 27.1416 15.2139C27.1416 12.9839 26.593 10.9249 25.4934 9.03937ZM14.8418 4.95583C17.3018 4.95583 19.4813 5.74302 21.3853 7.31616C20.2537 8.76016 18.5736 9.94832 16.3424 10.8831C15.1099 8.65315 13.7742 6.79096 12.3314 5.299C13.1491 5.0729 13.9934 4.95749 14.8418 4.95583ZM6.85922 8.81797C7.75863 7.67584 8.89664 6.74394 10.1937 6.08741C11.6844 7.56462 13.0534 9.40836 14.3018 11.6223C11.8419 12.3603 9.2417 12.7293 6.50253 12.7293C5.79775 12.7293 5.26517 12.7133 4.90356 12.6801C5.28051 11.271 5.94652 9.95577 6.85922 8.81797ZM4.58376 15.2139C4.58376 15.1475 4.58745 15.0663 4.59606 14.9679C4.60467 14.8695 4.60836 14.7883 4.60836 14.7219C4.92077 14.7391 5.39678 14.7465 6.03637 14.7465C9.3155 14.7465 12.3658 14.2951 15.1862 13.3935C15.4162 13.8523 15.6548 14.3689 15.8996 14.9433C14.276 15.3037 12.6106 16.1806 10.9046 17.5754C9.19865 18.9702 7.95391 20.4376 7.16672 21.9788C5.44475 20.0268 4.58376 17.7722 4.58376 15.2139ZM14.8418 25.4719C12.5122 25.4719 10.4212 24.7499 8.56767 23.3084C9.30689 21.8484 10.4422 20.4524 11.9759 19.1252C13.5085 17.7968 15.03 16.9691 16.5392 16.6406C17.4912 19.2716 18.1351 22.004 18.4579 24.7831C17.3053 25.2335 16.0793 25.467 14.8418 25.4719ZM23.5501 20.6012C22.745 21.8982 21.6609 22.9995 20.3767 23.825C20.0815 21.2666 19.5157 18.7734 18.6806 16.3455C19.8269 16.2643 20.8515 16.2225 21.7555 16.2225C22.7383 16.2225 23.8293 16.2643 25.026 16.3455C24.8655 17.8581 24.3606 19.3139 23.5501 20.6012ZM22.0249 14.4513C20.5981 14.4513 19.2783 14.5091 18.0643 14.6235C17.8072 13.9504 17.5283 13.2859 17.228 12.6309C19.7691 11.5165 21.5723 10.1636 22.6386 8.57197C24.1146 10.3112 24.919 12.2951 25.0494 14.5251C24.0507 14.4759 23.0421 14.4513 22.0249 14.4513Z" fill="#00204B"/>
</svg>
