<svg width="30" height="30" viewBox="0 0 30 30" fill="none" xmlns="http://www.w3.org/2000/svg">
<path d="M25.7967 8.71905C24.7233 6.85899 23.1787 5.31473 21.3183 4.24192C19.4327 3.14355 17.375 2.59375 15.145 2.59375C12.9151 2.59375 10.8573 3.14355 8.97052 4.24192C7.08496 5.3403 5.59176 6.83349 4.49339 8.71905C3.39502 10.6046 2.84521 12.6636 2.84521 14.8936C2.84521 17.1235 3.39379 19.1825 4.49339 21.0681C5.56633 22.9284 7.1111 24.4728 8.97175 25.5452C10.8573 26.6436 12.9151 27.1934 15.145 27.1934C17.375 27.1934 19.4327 26.6436 21.3195 25.5452C23.1799 24.4724 24.7246 22.9281 25.7979 21.0681C26.8963 19.1825 27.4448 17.1235 27.4448 14.8936C27.4448 12.6636 26.8963 10.6046 25.7967 8.71905ZM15.145 4.63552C17.605 4.63552 19.7845 5.42271 21.6885 6.99585C20.5569 8.43985 18.8768 9.62801 16.6456 10.5628C15.4132 8.33284 14.0774 6.47065 12.6346 4.97868C13.4523 4.75259 14.2966 4.63717 15.145 4.63552V4.63552ZM7.16245 8.49766C8.06186 7.35553 9.19987 6.42363 10.4969 5.7671C11.9877 7.24431 13.3566 9.08805 14.6051 11.302C12.1451 12.04 9.54492 12.409 6.80575 12.409C6.10097 12.409 5.56839 12.393 5.20678 12.3598C5.58374 10.9507 6.24974 9.63546 7.16245 8.49766V8.49766ZM4.88698 14.8936C4.88698 14.8271 4.89067 14.746 4.89928 14.6476C4.90789 14.5492 4.91158 14.468 4.91158 14.4016C5.224 14.4188 5.7 14.4262 6.33959 14.4262C9.61872 14.4262 12.6691 13.9748 15.4894 13.0732C15.7194 13.532 15.958 14.0486 16.2028 14.623C14.5792 14.9833 12.9138 15.8603 11.2079 17.2551C9.50187 18.6499 8.25713 20.1173 7.46994 21.6585C5.74797 19.7065 4.88698 17.4519 4.88698 14.8936V14.8936ZM15.145 25.1516C12.8154 25.1516 10.7245 24.4296 8.87089 22.9881C9.61011 21.5281 10.7454 20.132 12.2792 18.8049C13.8117 17.4765 15.3332 16.6487 16.8424 16.3203C17.7944 18.9513 18.4383 21.6836 18.7612 24.4628C17.6085 24.9132 16.3825 25.1467 15.145 25.1516V25.1516ZM23.8533 20.2809C23.0482 21.5779 21.9641 22.6792 20.6799 23.5047C20.3847 20.9463 19.8189 18.4531 18.9838 16.0251C20.1301 15.944 21.1547 15.9021 22.0587 15.9021C23.0415 15.9021 24.1325 15.944 25.3293 16.0251C25.1687 17.5378 24.6638 18.9936 23.8533 20.2809ZM22.3281 14.131C20.9013 14.131 19.5816 14.1888 18.3676 14.3032C18.1104 13.6301 17.8315 12.9656 17.5312 12.3106C20.0723 11.1962 21.8755 9.84326 22.9419 8.25166C24.4178 9.99085 25.2223 11.9748 25.3526 14.2048C24.3539 14.1556 23.3453 14.131 22.3281 14.131V14.131Z" fill="#00204B"/>
</svg>
