<svg width="30" height="30" viewBox="0 0 30 30" fill="none" xmlns="http://www.w3.org/2000/svg">
<path d="M25.4934 8.71905C24.4201 6.85899 22.8754 5.31473 21.0151 4.24192C19.1295 3.14355 17.0718 2.59375 14.8418 2.59375C12.6118 2.59375 10.5541 3.14355 8.6673 4.24192C6.78174 5.3403 5.28854 6.83349 4.19017 8.71905C3.09179 10.6046 2.54199 12.6636 2.54199 14.8936C2.54199 17.1235 3.09056 19.1825 4.19017 21.0681C5.26311 22.9284 6.80788 24.4728 8.66853 25.5452C10.5541 26.6436 12.6118 27.1934 14.8418 27.1934C17.0718 27.1934 19.1295 26.6436 21.0163 25.5452C22.8767 24.4724 24.4213 22.9281 25.4947 21.0681C26.593 19.1825 27.1416 17.1235 27.1416 14.8936C27.1416 12.6636 26.593 10.6046 25.4934 8.71905ZM14.8418 4.63552C17.3018 4.63552 19.4813 5.42271 21.3853 6.99585C20.2537 8.43985 18.5736 9.62801 16.3424 10.5628C15.1099 8.33284 13.7742 6.47065 12.3314 4.97868C13.1491 4.75259 13.9934 4.63717 14.8418 4.63552V4.63552ZM6.85922 8.49766C7.75863 7.35553 8.89664 6.42363 10.1937 5.7671C11.6844 7.24431 13.0534 9.08805 14.3018 11.302C11.8419 12.04 9.2417 12.409 6.50253 12.409C5.79775 12.409 5.26517 12.393 4.90356 12.3598C5.28051 10.9507 5.94652 9.63546 6.85922 8.49766V8.49766ZM4.58376 14.8936C4.58376 14.8271 4.58745 14.746 4.59606 14.6476C4.60467 14.5492 4.60836 14.468 4.60836 14.4016C4.92077 14.4188 5.39678 14.4262 6.03637 14.4262C9.3155 14.4262 12.3658 13.9748 15.1862 13.0732C15.4162 13.532 15.6548 14.0486 15.8996 14.623C14.276 14.9833 12.6106 15.8603 10.9046 17.2551C9.19865 18.6499 7.95391 20.1173 7.16672 21.6585C5.44475 19.7065 4.58376 17.4519 4.58376 14.8936V14.8936ZM14.8418 25.1516C12.5122 25.1516 10.4212 24.4296 8.56767 22.9881C9.30689 21.5281 10.4422 20.132 11.9759 18.8049C13.5085 17.4765 15.03 16.6487 16.5392 16.3203C17.4912 18.9513 18.1351 21.6836 18.4579 24.4628C17.3053 24.9132 16.0793 25.1467 14.8418 25.1516V25.1516ZM23.5501 20.2809C22.745 21.5779 21.6609 22.6792 20.3767 23.5047C20.0815 20.9463 19.5157 18.4531 18.6806 16.0251C19.8269 15.944 20.8515 15.9021 21.7555 15.9021C22.7383 15.9021 23.8293 15.944 25.026 16.0251C24.8655 17.5378 24.3606 18.9936 23.5501 20.2809ZM22.0249 14.131C20.5981 14.131 19.2783 14.1888 18.0643 14.3032C17.8072 13.6301 17.5283 12.9656 17.228 12.3106C19.7691 11.1962 21.5723 9.84326 22.6386 8.25166C24.1146 9.99085 24.919 11.9748 25.0494 14.2048C24.0507 14.1556 23.0421 14.131 22.0249 14.131V14.131Z" fill="#00204B"/>
</svg>
