<svg width="31" height="30" viewBox="0 0 31 30" fill="none" xmlns="http://www.w3.org/2000/svg">
<path d="M25.4824 4.14404H5.80273C5.47652 4.14404 5.16367 4.27363 4.93301 4.5043C4.70234 4.73496 4.57275 5.04781 4.57275 5.37402V25.0537C4.57275 25.3799 4.70234 25.6928 4.93301 25.9234C5.16367 26.1541 5.47652 26.2837 5.80273 26.2837H16.399V17.723H13.5233V14.3713H16.399V11.9114C16.399 9.05167 18.1456 7.49328 20.704 7.49328C21.5637 7.49082 22.4247 7.5351 23.2808 7.62489V10.6014H21.5157C20.1283 10.6014 19.8577 11.2632 19.8577 12.2312V14.3652H23.175L22.7445 17.7169H19.8565V26.2837H25.4824C25.8086 26.2837 26.1215 26.1541 26.3522 25.9234C26.5828 25.6928 26.7124 25.3799 26.7124 25.0537V5.37402C26.7124 5.04781 26.5828 4.73496 26.3522 4.5043C26.1215 4.27363 25.8086 4.14404 25.4824 4.14404Z" fill="#00204B"/>
</svg>
