<svg width="31" height="30" viewBox="0 0 31 30" fill="none" xmlns="http://www.w3.org/2000/svg">
<path d="M25.4824 3.82373H5.80267C5.47646 3.82373 5.16361 3.95332 4.93295 4.18398C4.70228 4.41465 4.57269 4.7275 4.57269 5.05371V24.7334C4.57269 25.0596 4.70228 25.3725 4.93295 25.6031C5.16361 25.8338 5.47646 25.9634 5.80267 25.9634H16.399V17.4027H13.5233V14.051H16.399V11.5911C16.399 8.73135 18.1455 7.17297 20.7039 7.17297C21.5636 7.17051 22.4246 7.21479 23.2807 7.30458V10.2811H21.5157C20.1283 10.2811 19.8577 10.9429 19.8577 11.9109V14.0449H23.1749L22.7444 17.3966H19.8564V25.9634H25.4824C25.8086 25.9634 26.1214 25.8338 26.3521 25.6031C26.5828 25.3725 26.7123 25.0596 26.7123 24.7334V5.05371C26.7123 4.7275 26.5828 4.41465 26.3521 4.18398C26.1214 3.95332 25.8086 3.82373 25.4824 3.82373Z" fill="#00204B"/>
</svg>
