<svg width="31" height="30" viewBox="0 0 31 30" fill="none" xmlns="http://www.w3.org/2000/svg">
<path d="M25.4824 3.9541H5.80273C5.47652 3.9541 5.16367 4.08369 4.93301 4.31435C4.70234 4.54502 4.57275 4.85787 4.57275 5.18408V24.8638C4.57275 25.19 4.70234 25.5028 4.93301 25.7335C5.16367 25.9642 5.47652 26.0938 5.80273 26.0938H16.399V17.5331H13.5233V14.1814H16.399V11.7214C16.399 8.86172 18.1456 7.30334 20.704 7.30334C21.5637 7.30088 22.4247 7.34516 23.2808 7.43495V10.4115H21.5157C20.1283 10.4115 19.8577 11.0732 19.8577 12.0412V14.1752H23.175L22.7445 17.5269H19.8565V26.0938H25.4824C25.8086 26.0938 26.1215 25.9642 26.3522 25.7335C26.5828 25.5028 26.7124 25.19 26.7124 24.8638V5.18408C26.7124 4.85787 26.5828 4.54502 26.3522 4.31435C26.1215 4.08369 25.8086 3.9541 25.4824 3.9541Z" fill="#00204B"/>
</svg>
