<svg width="30" height="30" viewBox="0 0 30 30" fill="none" xmlns="http://www.w3.org/2000/svg">
<path d="M24.7856 3.82373H5.10596C4.77975 3.82373 4.4669 3.95332 4.23623 4.18398C4.00556 4.41465 3.87598 4.7275 3.87598 5.05371V24.7334C3.87598 25.0596 4.00556 25.3725 4.23623 25.6031C4.4669 25.8338 4.77975 25.9634 5.10596 25.9634H15.7022V17.4027H12.8265V14.051H15.7022V11.5911C15.7022 8.73135 17.4488 7.17297 20.0072 7.17297C20.8669 7.17051 21.7279 7.21479 22.584 7.30458V10.2811H20.819C19.4315 10.2811 19.1609 10.9429 19.1609 11.9109V14.0449H22.4782L22.0477 17.3966H19.1597V25.9634H24.7856C25.1119 25.9634 25.4247 25.8338 25.6554 25.6031C25.886 25.3725 26.0156 25.0596 26.0156 24.7334V5.05371C26.0156 4.7275 25.886 4.41465 25.6554 4.18398C25.4247 3.95332 25.1119 3.82373 24.7856 3.82373Z" fill="#00204B"/>
</svg>
