<svg width="31" height="30" viewBox="0 0 31 30" fill="none" xmlns="http://www.w3.org/2000/svg">
<path d="M25.4824 3.82373H5.80273C5.47652 3.82373 5.16367 3.95332 4.93301 4.18398C4.70234 4.41465 4.57275 4.7275 4.57275 5.05371V24.7334C4.57275 25.0596 4.70234 25.3725 4.93301 25.6031C5.16367 25.8338 5.47652 25.9634 5.80273 25.9634H16.399V17.4027H13.5233V14.051H16.399V11.5911C16.399 8.73135 18.1456 7.17297 20.704 7.17297C21.5637 7.17051 22.4247 7.21479 23.2808 7.30458V10.2811H21.5157C20.1283 10.2811 19.8577 10.9429 19.8577 11.9109V14.0449H23.175L22.7445 17.3966H19.8565V25.9634H25.4824C25.8086 25.9634 26.1215 25.8338 26.3522 25.6031C26.5828 25.3725 26.7124 25.0596 26.7124 24.7334V5.05371C26.7124 4.7275 26.5828 4.41465 26.3522 4.18398C26.1215 3.95332 25.8086 3.82373 25.4824 3.82373Z" fill="#00204B"/>
</svg>
