<svg width="31" height="30" viewBox="0 0 31 30" fill="none" xmlns="http://www.w3.org/2000/svg">
<path d="M25.4824 3.81494H5.80273C5.47652 3.81494 5.16367 3.94453 4.93301 4.17519C4.70234 4.40586 4.57275 4.71871 4.57275 5.04492V24.7246C4.57275 25.0508 4.70234 25.3637 4.93301 25.5943C5.16367 25.825 5.47652 25.9546 5.80273 25.9546H16.399V17.3939H13.5233V14.0422H16.399V11.5823C16.399 8.72256 18.1456 7.16418 20.704 7.16418C21.5637 7.16172 22.4247 7.206 23.2808 7.29579V10.2723H21.5157C20.1283 10.2723 19.8577 10.9341 19.8577 11.9021V14.0361H23.175L22.7445 17.3878H19.8565V25.9546H25.4824C25.8086 25.9546 26.1215 25.825 26.3522 25.5943C26.5828 25.3637 26.7124 25.0508 26.7124 24.7246V5.04492C26.7124 4.71871 26.5828 4.40586 26.3522 4.17519C26.1215 3.94453 25.8086 3.81494 25.4824 3.81494Z" fill="#00204B"/>
</svg>
