<svg width="30" height="30" viewBox="0 0 30 30" fill="none" xmlns="http://www.w3.org/2000/svg">
<path d="M15.0398 9.52787C13.5314 9.52787 12.0847 10.1271 11.0181 11.1937C9.95155 12.2603 9.35234 13.7069 9.35234 15.2153C9.35234 16.7237 9.95155 18.1703 11.0181 19.2369C12.0847 20.3035 13.5314 20.9027 15.0398 20.9027C16.5482 20.9027 17.9948 20.3035 19.0614 19.2369C20.128 18.1703 20.7272 16.7237 20.7272 15.2153C20.7272 13.7069 20.128 12.2603 19.0614 11.1937C17.9948 10.1271 16.5482 9.52787 15.0398 9.52787ZM15.0398 18.9089C14.0598 18.9089 13.12 18.5196 12.4271 17.8267C11.7342 17.1338 11.3449 16.194 11.3449 15.2141C11.3449 14.2341 11.7342 13.2943 12.4271 12.6014C13.12 11.9085 14.0598 11.5192 15.0398 11.5192C16.0197 11.5192 16.9595 11.9085 17.6524 12.6014C18.3454 13.2943 18.7346 14.2341 18.7346 15.2141C18.7346 16.194 18.3454 17.1338 17.6524 17.8267C16.9595 18.5196 16.0197 18.9089 15.0398 18.9089Z" fill="#00204B"/>
<path d="M20.9523 10.6447C21.6846 10.6447 22.2782 10.0511 22.2782 9.31877C22.2782 8.58648 21.6846 7.99285 20.9523 7.99285C20.22 7.99285 19.6264 8.58648 19.6264 9.31877C19.6264 10.0511 20.22 10.6447 20.9523 10.6447Z" fill="#00204B"/>
<path d="M25.5364 7.97071C25.2517 7.2354 24.8166 6.56765 24.2589 6.01019C23.7012 5.45274 23.0333 5.01786 22.2979 4.7334C21.4373 4.41036 20.5282 4.23568 19.6091 4.21681C18.4247 4.16515 18.0495 4.15039 15.0459 4.15039C12.0423 4.15039 11.6573 4.15039 10.4827 4.21681C9.56437 4.23471 8.65587 4.40943 7.79641 4.7334C7.06081 5.01753 6.39272 5.45229 5.835 6.00979C5.27729 6.56729 4.84228 7.23521 4.55787 7.97071C4.23476 8.83122 4.06049 9.74045 4.04251 10.6594C3.98962 11.8427 3.97363 12.2178 3.97363 15.2227C3.97363 18.2263 3.97363 18.6088 4.04251 19.7859C4.06096 20.7059 4.23439 21.6137 4.55787 22.4759C4.84308 23.2111 5.27851 23.8788 5.83636 24.4362C6.39421 24.9936 7.06219 25.4285 7.79764 25.7132C8.65547 26.0492 9.56435 26.2364 10.4852 26.2667C11.6696 26.3183 12.0448 26.3343 15.0484 26.3343C18.052 26.3343 18.437 26.3343 19.6116 26.2667C20.5305 26.248 21.4396 26.0737 22.3003 25.7513C23.0356 25.4662 23.7033 25.0309 24.2609 24.4733C24.8185 23.9157 25.2538 23.248 25.5389 22.5128C25.8624 21.6518 26.0358 20.7441 26.0542 19.824C26.1071 18.6408 26.1231 18.2657 26.1231 15.2608C26.1231 12.256 26.1231 11.8747 26.0542 10.6976C26.0399 9.76559 25.8647 8.84307 25.5364 7.97071ZM24.0383 19.6949C24.0304 20.4037 23.901 21.106 23.6558 21.7711C23.4711 22.2494 23.1883 22.6837 22.8256 23.0462C22.463 23.4086 22.0285 23.6912 21.5501 23.8756C20.8923 24.1197 20.1975 24.2491 19.496 24.2581C18.3275 24.3122 17.9979 24.3258 15.0016 24.3258C12.0029 24.3258 11.6967 24.3258 10.5061 24.2581C9.80488 24.2495 9.11043 24.1201 8.45322 23.8756C7.97315 23.6923 7.53689 23.4103 7.17268 23.0478C6.80847 22.6852 6.52441 22.2503 6.33889 21.7711C6.09713 21.1131 5.96781 20.4192 5.95636 19.7183C5.90347 18.5498 5.89117 18.2201 5.89117 15.2239C5.89117 12.2264 5.89117 11.9202 5.95636 10.7283C5.96431 10.0199 6.0937 9.31806 6.33889 8.65335C6.71403 7.6829 7.48277 6.91908 8.45322 6.54762C9.11076 6.30426 9.805 6.17489 10.5061 6.1651C11.6758 6.11221 12.0042 6.09745 15.0016 6.09745C17.9991 6.09745 18.3066 6.09745 19.496 6.1651C20.1976 6.17354 20.8925 6.30294 21.5501 6.54762C22.0284 6.73246 22.4629 7.01526 22.8255 7.3779C23.1881 7.74053 23.471 8.17498 23.6558 8.65335C23.8975 9.31133 24.0269 10.0053 24.0383 10.7062C24.0912 11.8759 24.1047 12.2043 24.1047 15.2018C24.1047 18.198 24.1047 18.5203 24.0518 19.6961H24.0383V19.6949Z" fill="#00204B"/>
</svg>
