<svg width="30" height="30" viewBox="0 0 30 30" fill="none" xmlns="http://www.w3.org/2000/svg">
<path d="M15.0398 9.19852C13.5314 9.19852 12.0847 9.79773 11.0181 10.8643C9.95155 11.9309 9.35234 13.3776 9.35234 14.886C9.35234 16.3944 9.95155 17.841 11.0181 18.9076C12.0847 19.9742 13.5314 20.5734 15.0398 20.5734C16.5482 20.5734 17.9948 19.9742 19.0614 18.9076C20.128 17.841 20.7272 16.3944 20.7272 14.886C20.7272 13.3776 20.128 11.9309 19.0614 10.8643C17.9948 9.79773 16.5482 9.19852 15.0398 9.19852ZM15.0398 18.5796C14.0598 18.5796 13.12 18.1903 12.4271 17.4974C11.7342 16.8045 11.3449 15.8647 11.3449 14.8847C11.3449 13.9048 11.7342 12.965 12.4271 12.2721C13.12 11.5791 14.0598 11.1899 15.0398 11.1899C16.0197 11.1899 16.9595 11.5791 17.6524 12.2721C18.3454 12.965 18.7346 13.9048 18.7346 14.8847C18.7346 15.8647 18.3454 16.8045 17.6524 17.4974C16.9595 18.1903 16.0197 18.5796 15.0398 18.5796Z" fill="#00204B"/>
<path d="M20.9523 10.3153C21.6846 10.3153 22.2782 9.72171 22.2782 8.98942C22.2782 8.25714 21.6846 7.66351 20.9523 7.66351C20.22 7.66351 19.6264 8.25714 19.6264 8.98942C19.6264 9.72171 20.22 10.3153 20.9523 10.3153Z" fill="#00204B"/>
<path d="M25.5364 7.64137C25.2517 6.90606 24.8166 6.2383 24.2589 5.68085C23.7012 5.12339 23.0333 4.68851 22.2979 4.40406C21.4373 4.08101 20.5282 3.90633 19.6091 3.88746C18.4247 3.8358 18.0495 3.82104 15.0459 3.82104C12.0423 3.82104 11.6573 3.82104 10.4827 3.88746C9.56437 3.90537 8.65587 4.08008 7.79641 4.40406C7.06081 4.68818 6.39272 5.12294 5.835 5.68044C5.27729 6.23794 4.84228 6.90587 4.55787 7.64137C4.23476 8.50188 4.06049 9.41111 4.04251 10.3301C3.98962 11.5133 3.97363 11.8885 3.97363 14.8933C3.97363 17.8969 3.97363 18.2795 4.04251 19.4566C4.06096 20.3766 4.23439 21.2843 4.55787 22.1465C4.84308 22.8818 5.27851 23.5494 5.83636 24.1068C6.39421 24.6643 7.06219 25.0992 7.79764 25.3838C8.65547 25.7199 9.56435 25.907 10.4852 25.9373C11.6696 25.989 12.0448 26.005 15.0484 26.005C18.052 26.005 18.437 26.005 19.6116 25.9373C20.5305 25.9186 21.4396 25.7444 22.3003 25.422C23.0356 25.1368 23.7033 24.7016 24.2609 24.144C24.8185 23.5864 25.2538 22.9187 25.5389 22.1834C25.8624 21.3224 26.0358 20.4147 26.0542 19.4947C26.1071 18.3114 26.1231 17.9363 26.1231 14.9315C26.1231 11.9266 26.1231 11.5453 26.0542 10.3682C26.0399 9.43624 25.8647 8.51373 25.5364 7.64137ZM24.0383 19.3655C24.0304 20.0744 23.901 20.7766 23.6558 21.4417C23.4711 21.9201 23.1883 22.3544 22.8256 22.7168C22.463 23.0793 22.0285 23.3618 21.5501 23.5462C20.8923 23.7903 20.1975 23.9197 19.496 23.9288C18.3275 23.9829 17.9979 23.9964 15.0016 23.9964C12.0029 23.9964 11.6967 23.9964 10.5061 23.9288C9.80488 23.9202 9.11043 23.7908 8.45322 23.5462C7.97315 23.363 7.53689 23.0809 7.17268 22.7184C6.80847 22.3559 6.52441 21.921 6.33889 21.4417C6.09713 20.7838 5.96781 20.0898 5.95636 19.3889C5.90347 18.2204 5.89117 17.8908 5.89117 14.8946C5.89117 11.8971 5.89117 11.5908 5.95636 10.399C5.96431 9.69054 6.0937 8.98871 6.33889 8.324C6.71403 7.35355 7.48277 6.58973 8.45322 6.21828C9.11076 5.97491 9.805 5.84555 10.5061 5.83575C11.6758 5.78286 12.0042 5.7681 15.0016 5.7681C17.9991 5.7681 18.3066 5.7681 19.496 5.83575C20.1976 5.84419 20.8925 5.9736 21.5501 6.21828C22.0284 6.40311 22.4629 6.68592 22.8255 7.04855C23.1881 7.41118 23.471 7.84563 23.6558 8.324C23.8975 8.98198 24.0269 9.67595 24.0383 10.3768C24.0912 11.5466 24.1047 11.875 24.1047 14.8724C24.1047 17.8687 24.1047 18.1909 24.0518 19.3668H24.0383V19.3655Z" fill="#00204B"/>
</svg>
