<svg width="30" height="30" viewBox="0 0 30 30" fill="none" xmlns="http://www.w3.org/2000/svg">
<path d="M15.0398 9.20755C13.5314 9.20755 12.0847 9.80676 11.0181 10.8734C9.95155 11.94 9.35234 13.3866 9.35234 14.895C9.35234 16.4034 9.95155 17.85 11.0181 18.9166C12.0847 19.9832 13.5314 20.5824 15.0398 20.5824C16.5482 20.5824 17.9948 19.9832 19.0614 18.9166C20.128 17.85 20.7272 16.4034 20.7272 14.895C20.7272 13.3866 20.128 11.94 19.0614 10.8734C17.9948 9.80676 16.5482 9.20755 15.0398 9.20755ZM15.0398 18.5886C14.0598 18.5886 13.12 18.1993 12.4271 17.5064C11.7342 16.8135 11.3449 15.8737 11.3449 14.8938C11.3449 13.9138 11.7342 12.974 12.4271 12.2811C13.12 11.5882 14.0598 11.1989 15.0398 11.1989C16.0197 11.1989 16.9595 11.5882 17.6524 12.2811C18.3454 12.974 18.7346 13.9138 18.7346 14.8938C18.7346 15.8737 18.3454 16.8135 17.6524 17.5064C16.9595 18.1993 16.0197 18.5886 15.0398 18.5886Z" fill="#00204B"/>
<path d="M20.9523 10.3244C21.6846 10.3244 22.2782 9.73074 22.2782 8.99846C22.2782 8.26617 21.6846 7.67254 20.9523 7.67254C20.22 7.67254 19.6264 8.26617 19.6264 8.99846C19.6264 9.73074 20.22 10.3244 20.9523 10.3244Z" fill="#00204B"/>
<path d="M25.5364 7.6504C25.2517 6.91509 24.8166 6.24734 24.2589 5.68988C23.7012 5.13242 23.0333 4.69755 22.2979 4.41309C21.4373 4.09004 20.5282 3.91537 19.6091 3.8965C18.4247 3.84484 18.0495 3.83008 15.0459 3.83008C12.0423 3.83008 11.6573 3.83008 10.4827 3.8965C9.56437 3.9144 8.65587 4.08911 7.79641 4.41309C7.06081 4.69722 6.39272 5.13198 5.835 5.68948C5.27729 6.24697 4.84228 6.9149 4.55787 7.6504C4.23476 8.51091 4.06049 9.42014 4.04251 10.3391C3.98962 11.5224 3.97363 11.8975 3.97363 14.9024C3.97363 17.906 3.97363 18.2885 4.04251 19.4656C4.06096 20.3856 4.23439 21.2933 4.55787 22.1556C4.84308 22.8908 5.27851 23.5585 5.83636 24.1159C6.39421 24.6733 7.06219 25.1082 7.79764 25.3929C8.65547 25.7289 9.56435 25.9161 10.4852 25.9464C11.6696 25.998 12.0448 26.014 15.0484 26.014C18.052 26.014 18.437 26.014 19.6116 25.9464C20.5305 25.9277 21.4396 25.7534 22.3003 25.431C23.0356 25.1459 23.7033 24.7106 24.2609 24.153C24.8185 23.5954 25.2538 22.9277 25.5389 22.1925C25.8624 21.3315 26.0358 20.4238 26.0542 19.5037C26.1071 18.3205 26.1231 17.9453 26.1231 14.9405C26.1231 11.9357 26.1231 11.5544 26.0542 10.3773C26.0399 9.44528 25.8647 8.52276 25.5364 7.6504ZM24.0383 19.3746C24.0304 20.0834 23.901 20.7857 23.6558 21.4508C23.4711 21.9291 23.1883 22.3634 22.8256 22.7259C22.463 23.0883 22.0285 23.3708 21.5501 23.5553C20.8923 23.7994 20.1975 23.9288 19.496 23.9378C18.3275 23.9919 17.9979 24.0055 15.0016 24.0055C12.0029 24.0055 11.6967 24.0055 10.5061 23.9378C9.80488 23.9292 9.11043 23.7998 8.45322 23.5553C7.97315 23.372 7.53689 23.09 7.17268 22.7275C6.80847 22.3649 6.52441 21.93 6.33889 21.4508C6.09713 20.7928 5.96781 20.0988 5.95636 19.3979C5.90347 18.2295 5.89117 17.8998 5.89117 14.9036C5.89117 11.9061 5.89117 11.5999 5.95636 10.408C5.96431 9.69957 6.0937 8.99774 6.33889 8.33304C6.71403 7.36258 7.48277 6.59876 8.45322 6.22731C9.11076 5.98395 9.805 5.85458 10.5061 5.84479C11.6758 5.7919 12.0042 5.77714 15.0016 5.77714C17.9991 5.77714 18.3066 5.77714 19.496 5.84479C20.1976 5.85323 20.8925 5.98263 21.5501 6.22731C22.0284 6.41214 22.4629 6.69495 22.8255 7.05758C23.1881 7.42022 23.471 7.85466 23.6558 8.33304C23.8975 8.99102 24.0269 9.68498 24.0383 10.3859C24.0912 11.5556 24.1047 11.884 24.1047 14.8815C24.1047 17.8777 24.1047 18.1999 24.0518 19.3758H24.0383V19.3746Z" fill="#00204B"/>
</svg>
