<svg width="31" height="30" viewBox="0 0 31 30" fill="none" xmlns="http://www.w3.org/2000/svg">
<path d="M15.343 9.20755C13.8346 9.20755 12.388 9.80676 11.3214 10.8734C10.2548 11.94 9.65556 13.3866 9.65556 14.895C9.65556 16.4034 10.2548 17.85 11.3214 18.9166C12.388 19.9832 13.8346 20.5824 15.343 20.5824C16.8514 20.5824 18.298 19.9832 19.3646 18.9166C20.4312 17.85 21.0304 16.4034 21.0304 14.895C21.0304 13.3866 20.4312 11.94 19.3646 10.8734C18.298 9.80676 16.8514 9.20755 15.343 9.20755ZM15.343 18.5886C14.3631 18.5886 13.4233 18.1993 12.7303 17.5064C12.0374 16.8135 11.6481 15.8737 11.6481 14.8938C11.6481 13.9138 12.0374 12.974 12.7303 12.2811C13.4233 11.5882 14.3631 11.1989 15.343 11.1989C16.3229 11.1989 17.2627 11.5882 17.9557 12.2811C18.6486 12.974 19.0379 13.9138 19.0379 14.8938C19.0379 15.8737 18.6486 16.8135 17.9557 17.5064C17.2627 18.1993 16.3229 18.5886 15.343 18.5886Z" fill="#00204B"/>
<path d="M21.2555 10.3244C21.9878 10.3244 22.5814 9.73074 22.5814 8.99846C22.5814 8.26617 21.9878 7.67254 21.2555 7.67254C20.5232 7.67254 19.9296 8.26617 19.9296 8.99846C19.9296 9.73074 20.5232 10.3244 21.2555 10.3244Z" fill="#00204B"/>
<path d="M25.8397 7.6504C25.5549 6.91509 25.1198 6.24734 24.5621 5.68988C24.0044 5.13242 23.3365 4.69755 22.6011 4.41309C21.7405 4.09004 20.8314 3.91537 19.9124 3.8965C18.7279 3.84484 18.3528 3.83008 15.3491 3.83008C12.3455 3.83008 11.9605 3.83008 10.7859 3.8965C9.8676 3.9144 8.95909 4.08911 8.09964 4.41309C7.36403 4.69722 6.69594 5.13198 6.13823 5.68948C5.58052 6.24697 5.1455 6.9149 4.8611 7.6504C4.53799 8.51091 4.36371 9.42014 4.34573 10.3391C4.29285 11.5224 4.27686 11.8975 4.27686 14.9024C4.27686 17.906 4.27686 18.2885 4.34573 19.4656C4.36418 20.3856 4.53761 21.2933 4.8611 22.1556C5.1463 22.8908 5.58174 23.5585 6.13958 24.1159C6.69743 24.6733 7.36542 25.1082 8.10087 25.3929C8.9587 25.7289 9.86758 25.9161 10.7884 25.9464C11.9728 25.998 12.348 26.014 15.3516 26.014C18.3552 26.014 18.7402 26.014 19.9148 25.9464C20.8338 25.9277 21.7429 25.7534 22.6036 25.431C23.3388 25.1459 24.0065 24.7106 24.5641 24.153C25.1217 23.5954 25.557 22.9277 25.8421 22.1925C26.1656 21.3315 26.339 20.4238 26.3575 19.5037C26.4104 18.3205 26.4263 17.9453 26.4263 14.9405C26.4263 11.9357 26.4263 11.5544 26.3575 10.3773C26.3432 9.44528 26.168 8.52276 25.8397 7.6504ZM24.3415 19.3746C24.3336 20.0834 24.2042 20.7857 23.959 21.4508C23.7743 21.9291 23.4915 22.3634 23.1289 22.7259C22.7662 23.0883 22.3317 23.3708 21.8533 23.5553C21.1955 23.7994 20.5007 23.9288 19.7992 23.9378C18.6307 23.9919 18.3011 24.0055 15.3049 24.0055C12.3062 24.0055 11.9999 24.0055 10.8093 23.9378C10.1081 23.9292 9.41366 23.7998 8.75645 23.5553C8.27637 23.372 7.84011 23.09 7.4759 22.7275C7.11169 22.3649 6.82763 21.93 6.64211 21.4508C6.40035 20.7928 6.27104 20.0988 6.25958 19.3979C6.2067 18.2295 6.1944 17.8998 6.1944 14.9036C6.1944 11.9061 6.1944 11.5999 6.25958 10.408C6.26753 9.69957 6.39692 8.99774 6.64211 8.33304C7.01725 7.36258 7.78599 6.59876 8.75645 6.22731C9.41398 5.98395 10.1082 5.85458 10.8093 5.84479C11.979 5.7919 12.3074 5.77714 15.3049 5.77714C18.3023 5.77714 18.6098 5.77714 19.7992 5.84479C20.5008 5.85323 21.1957 5.98263 21.8533 6.22731C22.3317 6.41214 22.7661 6.69495 23.1287 7.05758C23.4914 7.42022 23.7742 7.85466 23.959 8.33304C24.2008 8.99102 24.3301 9.68498 24.3415 10.3859C24.3944 11.5556 24.408 11.884 24.408 14.8815C24.408 17.8777 24.408 18.1999 24.3551 19.3758H24.3415V19.3746Z" fill="#00204B"/>
</svg>
