<svg width="30" height="30" viewBox="0 0 30 30" fill="none" xmlns="http://www.w3.org/2000/svg">
<path d="M15.0398 9.33792C13.5314 9.33792 12.0847 9.93713 11.0181 11.0037C9.95155 12.0703 9.35234 13.517 9.35234 15.0254C9.35234 16.5338 9.95155 17.9804 11.0181 19.047C12.0847 20.1136 13.5314 20.7128 15.0398 20.7128C16.5482 20.7128 17.9948 20.1136 19.0614 19.047C20.128 17.9804 20.7272 16.5338 20.7272 15.0254C20.7272 13.517 20.128 12.0703 19.0614 11.0037C17.9948 9.93713 16.5482 9.33792 15.0398 9.33792ZM15.0398 18.719C14.0598 18.719 13.12 18.3297 12.4271 17.6368C11.7342 16.9439 11.3449 16.0041 11.3449 15.0241C11.3449 14.0442 11.7342 13.1044 12.4271 12.4115C13.12 11.7185 14.0598 11.3293 15.0398 11.3293C16.0197 11.3293 16.9595 11.7185 17.6524 12.4115C18.3454 13.1044 18.7346 14.0442 18.7346 15.0241C18.7346 16.0041 18.3454 16.9439 17.6524 17.6368C16.9595 18.3297 16.0197 18.719 15.0398 18.719Z" fill="#00204B"/>
<path d="M20.9523 10.4547C21.6846 10.4547 22.2782 9.86111 22.2782 9.12883C22.2782 8.39654 21.6846 7.80291 20.9523 7.80291C20.22 7.80291 19.6264 8.39654 19.6264 9.12883C19.6264 9.86111 20.22 10.4547 20.9523 10.4547Z" fill="#00204B"/>
<path d="M25.5364 7.78077C25.2517 7.04546 24.8166 6.37771 24.2589 5.82025C23.7012 5.2628 23.0333 4.82792 22.2979 4.54346C21.4373 4.22041 20.5282 4.04574 19.6091 4.02687C18.4247 3.97521 18.0495 3.96045 15.0459 3.96045C12.0423 3.96045 11.6573 3.96045 10.4827 4.02687C9.56437 4.04477 8.65587 4.21948 7.79641 4.54346C7.06081 4.82759 6.39272 5.26235 5.835 5.81985C5.27729 6.37734 4.84228 7.04527 4.55787 7.78077C4.23476 8.64128 4.06049 9.55051 4.04251 10.4695C3.98962 11.6527 3.97363 12.0279 3.97363 15.0327C3.97363 18.0363 3.97363 18.4189 4.04251 19.596C4.06096 20.516 4.23439 21.4237 4.55787 22.2859C4.84308 23.0212 5.27851 23.6888 5.83636 24.2462C6.39421 24.8037 7.06219 25.2386 7.79764 25.5232C8.65547 25.8593 9.56435 26.0465 10.4852 26.0767C11.6696 26.1284 12.0448 26.1444 15.0484 26.1444C18.052 26.1444 18.437 26.1444 19.6116 26.0767C20.5305 26.058 21.4396 25.8838 22.3003 25.5614C23.0356 25.2762 23.7033 24.841 24.2609 24.2834C24.8185 23.7258 25.2538 23.0581 25.5389 22.3228C25.8624 21.4618 26.0358 20.5541 26.0542 19.6341C26.1071 18.4509 26.1231 18.0757 26.1231 15.0709C26.1231 12.066 26.1231 11.6847 26.0542 10.5076C26.0399 9.57565 25.8647 8.65313 25.5364 7.78077ZM24.0383 19.5049C24.0304 20.2138 23.901 20.916 23.6558 21.5812C23.4711 22.0595 23.1883 22.4938 22.8256 22.8562C22.463 23.2187 22.0285 23.5012 21.5501 23.6857C20.8923 23.9297 20.1975 24.0591 19.496 24.0682C18.3275 24.1223 17.9979 24.1358 15.0016 24.1358C12.0029 24.1358 11.6967 24.1358 10.5061 24.0682C9.80488 24.0596 9.11043 23.9302 8.45322 23.6857C7.97315 23.5024 7.53689 23.2203 7.17268 22.8578C6.80847 22.4953 6.52441 22.0604 6.33889 21.5812C6.09713 20.9232 5.96781 20.2292 5.95636 19.5283C5.90347 18.3598 5.89117 18.0302 5.89117 15.034C5.89117 12.0365 5.89117 11.7302 5.95636 10.5384C5.96431 9.82995 6.0937 9.12811 6.33889 8.46341C6.71403 7.49295 7.48277 6.72914 8.45322 6.35768C9.11076 6.11432 9.805 5.98495 10.5061 5.97516C11.6758 5.92227 12.0042 5.90751 15.0016 5.90751C17.9991 5.90751 18.3066 5.90751 19.496 5.97516C20.1976 5.9836 20.8925 6.113 21.5501 6.35768C22.0284 6.54251 22.4629 6.82532 22.8255 7.18796C23.1881 7.55059 23.471 7.98503 23.6558 8.46341C23.8975 9.12139 24.0269 9.81536 24.0383 10.5162C24.0912 11.686 24.1047 12.0144 24.1047 15.0118C24.1047 18.0081 24.1047 18.3303 24.0518 19.5062H24.0383V19.5049Z" fill="#00204B"/>
</svg>
